<svg id="svg" version="1.1" xmlns="http://www.w3.org/2000/svg" xmlns:xlink="http://www.w3.org/1999/xlink" width="400" height="400" viewBox="0, 0, 400,400"><g id="svgg"><path id="path0" d="M326.238 1.000 C 325.644 1.550,324.972 2.000,324.743 2.000 C 324.515 2.000,321.959 4.334,319.064 7.187 C 313.191 12.973,309.906 15.600,308.543 15.600 C 307.100 15.600,303.696 14.110,301.757 12.629 C 296.519 8.630,286.543 10.932,282.247 17.132 C 281.665 17.972,280.426 19.076,279.495 19.586 C 278.563 20.097,277.350 20.919,276.800 21.415 C 270.769 26.847,269.462 27.163,266.158 23.989 C 262.839 20.802,261.752 20.390,256.703 20.399 C 254.446 20.403,252.040 20.390,251.355 20.371 C 249.241 20.311,244.137 23.219,240.400 26.614 C 238.530 28.313,235.961 30.503,234.692 31.481 C 233.122 32.690,232.051 33.922,231.347 35.330 C 230.777 36.468,229.866 37.992,229.323 38.716 C 225.682 43.567,227.403 51.895,233.397 58.427 C 234.853 60.013,236.521 61.961,237.106 62.755 C 238.148 64.173,242.357 69.207,242.829 69.600 C 242.961 69.710,244.664 71.780,246.615 74.200 C 248.565 76.620,251.319 79.950,252.734 81.600 C 257.325 86.950,259.365 89.307,259.795 89.758 C 260.027 90.001,260.933 91.100,261.808 92.200 C 262.683 93.300,265.020 96.090,267.000 98.400 C 268.980 100.710,271.223 103.410,271.985 104.400 C 272.746 105.390,274.474 107.460,275.823 109.000 C 284.172 118.526,284.576 119.503,282.400 124.936 C 281.363 127.526,281.200 128.447,281.200 131.707 L 281.200 135.480 278.936 138.564 C 277.408 140.646,276.141 141.919,275.036 142.480 C 273.617 143.201,269.239 146.593,262.253 152.385 C 259.932 154.310,258.592 154.446,256.802 152.940 C 256.109 152.358,254.859 151.413,254.024 150.840 C 253.189 150.268,251.180 148.360,249.558 146.600 C 247.937 144.840,245.618 142.640,244.405 141.711 C 243.192 140.782,241.300 139.297,240.200 138.411 C 239.100 137.524,236.001 135.684,233.313 134.321 L 228.426 131.843 222.513 131.692 C 217.027 131.552,216.484 131.604,215.000 132.416 C 214.120 132.898,212.382 133.801,211.137 134.425 C 209.892 135.048,207.960 136.370,206.843 137.362 C 205.726 138.354,204.405 139.373,203.906 139.628 C 203.408 139.883,202.100 140.687,201.000 141.415 C 199.469 142.428,198.433 142.787,196.580 142.943 C 195.249 143.056,193.311 143.362,192.274 143.623 C 191.236 143.884,189.362 144.013,188.108 143.909 C 184.217 143.586,175.265 146.203,172.282 148.535 C 166.008 153.438,163.387 157.157,162.187 162.861 C 161.022 168.399,155.830 173.756,147.982 177.519 C 146.562 178.199,145.205 179.081,144.966 179.478 C 143.112 182.565,141.122 186.712,140.207 189.400 C 139.608 191.160,138.545 193.320,137.845 194.200 C 137.144 195.080,136.277 196.267,135.917 196.838 C 134.858 198.519,132.827 200.370,131.054 201.271 C 125.684 203.999,118.800 209.686,118.800 211.394 C 118.800 211.844,118.424 212.914,117.964 213.771 C 117.330 214.954,117.189 215.725,117.377 216.965 C 117.514 217.864,117.758 221.660,117.920 225.400 L 118.213 232.200 119.906 235.901 C 120.838 237.936,121.600 239.678,121.600 239.772 C 121.600 239.866,122.233 241.005,123.007 242.304 C 123.810 243.652,124.655 245.821,124.976 247.355 C 125.286 248.834,125.971 250.620,126.499 251.322 C 127.817 253.077,131.200 260.199,131.200 261.221 C 131.200 262.572,130.586 263.359,127.718 265.685 C 126.223 266.897,124.550 268.325,124.000 268.858 C 123.450 269.391,122.010 270.623,120.800 271.595 C 119.590 272.567,117.687 274.206,116.571 275.237 C 112.624 278.883,111.565 279.133,104.148 278.173 C 102.278 277.931,101.862 278.038,99.462 279.380 C 95.380 281.663,93.277 281.256,92.404 278.016 C 92.186 277.205,90.945 275.327,89.605 273.779 C 88.281 272.251,85.754 269.251,83.990 267.113 C 82.225 264.974,79.833 262.184,78.674 260.913 C 77.515 259.641,75.949 257.790,75.194 256.800 C 74.439 255.810,72.556 253.594,71.010 251.875 C 69.465 250.157,67.693 247.997,67.074 247.075 C 66.454 246.154,64.764 244.179,63.317 242.686 C 61.870 241.194,59.767 238.738,58.643 237.230 C 57.519 235.722,55.490 233.311,54.133 231.872 C 52.776 230.432,50.899 228.208,49.961 226.927 C 49.023 225.647,47.139 223.386,45.775 221.902 C 44.411 220.419,42.530 218.169,41.594 216.902 C 36.818 210.435,22.767 208.539,18.421 213.775 C 18.132 214.123,16.524 215.434,14.848 216.688 C 13.172 217.942,10.342 220.326,8.559 221.984 C 6.777 223.643,4.482 225.759,3.459 226.686 C 2.117 227.902,1.600 228.673,1.600 229.457 C 1.600 230.054,1.384 231.140,1.120 231.869 C 0.701 233.031,0.733 233.263,1.380 233.736 C 2.084 234.251,2.076 234.287,1.203 234.515 C 0.412 234.722,0.318 234.941,0.511 236.130 C 0.638 236.914,0.542 237.698,0.287 237.953 C -0.042 238.282,0.071 238.400,0.720 238.400 C 1.204 238.400,1.600 238.580,1.600 238.800 C 1.600 239.020,1.330 239.200,1.000 239.200 C -0.196 239.200,0.848 242.051,2.884 244.344 C 5.810 247.641,5.978 249.272,3.600 251.307 C 2.720 252.060,2.000 252.974,2.000 253.338 C 2.000 253.777,1.664 254.000,1.000 254.000 L 0.000 254.000 0.000 263.000 L 0.000 272.000 0.900 271.996 C 1.395 271.993,3.690 270.667,6.000 269.047 C 14.484 263.100,17.710 262.253,20.372 265.275 C 21.377 266.417,23.389 268.630,24.842 270.193 C 29.052 274.723,29.277 276.859,25.853 279.822 C 24.944 280.609,23.300 282.120,22.200 283.181 C 20.396 284.921,18.476 286.357,13.482 289.700 C 10.827 291.478,7.500 290.500,4.809 287.152 C 4.123 286.298,3.335 285.600,3.058 285.600 C 2.781 285.600,2.244 284.897,1.865 284.038 C 0.376 280.662,0.000 281.496,0.000 288.179 C 0.000 292.728,0.130 294.386,0.500 294.535 C 0.900 294.696,0.900 294.743,0.500 294.768 C -0.436 294.828,0.107 299.200,1.050 299.200 C 1.353 299.200,1.600 299.470,1.600 299.800 C 1.600 300.130,1.748 300.400,1.928 300.400 C 2.434 300.400,4.411 302.353,6.584 305.000 C 7.668 306.320,9.510 308.422,10.677 309.670 C 14.035 313.262,13.620 315.334,9.113 317.487 C 6.717 318.631,6.446 318.913,3.844 322.947 C 2.335 325.286,0.850 327.200,0.545 327.200 C -0.200 327.200,-0.217 339.823,0.527 340.176 C 0.883 340.344,0.876 340.458,0.500 340.633 C -0.138 340.931,-0.216 355.648,0.414 356.826 C 0.642 357.252,1.182 357.600,1.614 357.600 C 2.186 357.600,2.400 357.873,2.400 358.600 C 2.400 359.150,2.566 359.600,2.769 359.600 C 3.468 359.600,4.059 362.207,3.595 363.242 C 2.731 365.171,2.185 365.815,1.527 365.685 C 1.157 365.612,0.655 365.923,0.413 366.376 C 0.074 367.009,0.091 367.201,0.486 367.206 C 0.882 367.211,0.875 367.292,0.455 367.557 C -0.356 368.072,-0.026 374.299,0.846 374.937 C 2.090 375.847,2.154 377.155,1.010 378.299 L -0.047 379.356 0.077 386.790 L 0.200 394.223 1.900 395.758 C 2.835 396.602,3.600 397.542,3.600 397.847 C 3.600 398.151,3.858 398.400,4.173 398.400 C 4.488 398.400,4.861 398.761,5.001 399.203 C 5.255 400.004,5.489 400.006,99.453 399.997 L 193.650 399.988 193.375 399.094 C 192.841 397.360,190.303 393.406,188.354 391.274 C 187.269 390.087,185.545 388.010,184.523 386.658 C 183.500 385.306,181.469 382.940,180.010 381.400 C 178.550 379.860,176.835 377.880,176.198 377.000 C 175.176 375.589,171.092 370.729,169.697 369.265 C 169.417 368.971,168.700 368.071,168.103 367.265 C 167.506 366.459,165.484 363.991,163.609 361.781 C 161.734 359.570,159.750 357.211,159.200 356.539 C 158.650 355.866,157.082 354.070,155.716 352.548 C 154.349 351.025,152.209 348.434,150.958 346.790 C 149.708 345.145,147.666 342.720,146.419 341.400 C 145.173 340.080,143.358 337.920,142.386 336.600 C 141.414 335.280,139.849 333.326,138.909 332.257 C 136.820 329.882,136.803 329.393,138.649 324.691 C 139.869 321.582,140.137 320.329,140.349 316.742 C 140.527 313.723,140.785 312.268,141.234 311.742 C 141.583 311.334,142.240 310.185,142.694 309.189 C 143.532 307.352,144.244 306.809,146.849 306.014 C 148.566 305.490,152.893 302.280,157.404 298.185 C 162.753 293.329,165.793 293.039,169.598 297.022 C 176.403 304.146,192.845 302.920,202.519 294.567 C 206.846 290.831,207.076 290.730,211.983 290.394 C 218.858 289.924,232.836 283.170,237.014 278.300 C 238.374 276.715,239.382 276.158,243.715 274.601 C 245.428 273.986,247.228 273.055,247.715 272.532 C 248.202 272.010,250.130 270.569,252.000 269.331 C 257.661 265.584,259.780 263.126,262.632 257.000 C 264.118 253.808,264.473 253.379,269.390 248.837 C 276.080 242.657,277.909 242.251,285.800 245.196 C 289.231 246.477,295.645 246.688,298.147 245.602 C 299.276 245.112,300.776 244.468,301.480 244.171 C 302.185 243.874,303.068 243.130,303.443 242.516 C 303.819 241.902,304.820 240.333,305.668 239.029 C 306.517 237.725,307.462 235.813,307.769 234.781 C 308.075 233.748,308.630 232.316,309.000 231.600 C 309.370 230.884,309.947 229.377,310.281 228.252 C 310.615 227.127,311.604 224.784,312.478 223.045 C 313.352 221.307,314.317 218.695,314.621 217.242 C 314.926 215.789,315.541 213.176,315.988 211.436 C 318.351 202.231,314.768 192.632,307.615 189.007 C 306.523 188.454,305.013 187.460,304.260 186.799 C 303.507 186.138,302.108 185.320,301.152 184.983 C 297.110 183.557,296.487 181.808,298.965 178.842 C 299.715 177.944,300.716 176.583,301.189 175.818 C 301.832 174.777,302.420 174.359,303.524 174.158 C 304.336 174.010,305.996 173.195,307.214 172.347 C 309.677 170.631,312.262 170.283,317.513 170.958 C 319.627 171.230,320.466 171.137,322.802 170.371 C 326.765 169.072,327.074 169.309,335.899 180.392 C 337.385 182.257,339.788 185.047,341.241 186.592 C 342.693 188.136,344.994 190.814,346.354 192.543 C 347.714 194.271,349.617 196.521,350.583 197.543 C 351.548 198.564,353.023 200.300,353.859 201.400 C 354.696 202.500,357.063 205.380,359.121 207.800 C 366.628 216.629,370.024 220.663,372.426 223.600 C 376.548 228.643,379.558 231.610,381.322 232.372 C 383.285 233.219,384.273 234.222,384.464 235.560 C 384.824 238.092,396.885 239.895,399.235 237.768 C 400.070 237.013,400.481 43.200,399.649 43.200 C 399.455 43.200,399.073 43.740,398.800 44.400 C 397.999 46.333,396.109 45.910,392.536 42.999 C 389.519 40.542,388.129 40.595,386.790 43.220 C 385.275 46.190,382.579 45.287,378.720 40.518 C 375.399 36.415,373.244 34.454,370.653 33.178 C 367.430 31.592,365.945 30.386,364.172 27.913 C 363.338 26.751,361.281 24.360,359.600 22.600 C 357.919 20.840,355.535 18.050,354.302 16.400 C 353.068 14.750,351.482 12.770,350.777 12.000 C 350.072 11.230,348.528 9.409,347.345 7.953 C 346.163 6.497,344.488 4.816,343.625 4.217 C 342.761 3.619,341.644 2.530,341.142 1.797 C 340.155 0.357,339.125 0.000,335.950 0.000 C 334.198 0.000,333.999 0.092,333.987 0.900 L 333.973 1.800 333.223 0.900 C 332.290 -0.218,329.200 -0.423,329.200 0.633 C 329.200 0.982,328.975 1.184,328.700 1.083 C 328.425 0.982,328.245 0.698,328.300 0.450 C 328.474 -0.335,327.356 -0.037,326.238 1.000 M336.738 13.038 C 337.322 13.389,338.574 14.694,339.519 15.938 C 340.465 17.182,342.323 19.370,343.649 20.800 C 348.981 26.550,350.483 29.378,349.309 31.455 C 346.785 35.919,345.197 37.178,340.581 38.369 C 338.877 38.809,337.707 39.877,335.808 42.724 C 334.612 44.517,333.722 45.200,332.583 45.200 C 331.808 45.200,326.033 39.365,324.467 37.000 C 323.885 36.120,322.553 34.358,321.507 33.083 C 318.517 29.438,318.513 28.416,321.479 26.200 C 322.362 25.540,323.511 24.370,324.032 23.600 C 325.598 21.286,327.684 18.762,329.800 16.622 C 330.900 15.510,332.060 14.201,332.378 13.714 C 333.286 12.323,335.084 12.044,336.738 13.038 M298.719 22.432 C 299.725 22.782,300.084 23.250,300.640 24.932 C 301.158 26.501,301.964 27.627,303.979 29.600 C 310.925 36.400,311.405 38.648,306.900 43.278 L 303.800 46.463 303.900 48.773 C 303.986 50.749,303.859 51.235,303.020 52.141 C 301.968 53.276,301.934 53.284,298.000 53.427 C 296.570 53.479,294.659 53.646,293.754 53.798 C 291.713 54.140,288.457 51.352,284.440 45.823 C 280.833 40.859,280.609 39.597,283.008 37.767 C 283.727 37.218,284.531 36.250,284.794 35.614 C 285.057 34.979,286.921 32.939,288.936 31.081 C 291.475 28.740,292.964 27.000,293.786 25.414 C 295.477 22.151,296.368 21.612,298.719 22.432 M257.318 31.263 C 258.377 31.830,258.753 32.212,260.008 33.995 C 260.548 34.762,262.313 36.907,263.930 38.763 C 268.184 43.641,268.178 43.603,265.335 47.745 C 264.601 48.815,264.000 50.111,264.000 50.626 C 264.000 53.130,263.095 53.883,259.456 54.412 C 258.064 54.614,256.521 55.159,255.656 55.754 C 254.855 56.306,253.408 57.307,252.440 57.978 C 250.032 59.650,249.041 59.560,247.047 57.489 C 245.156 55.525,241.730 50.844,241.553 49.982 C 241.377 49.120,241.957 47.200,242.395 47.200 C 242.604 47.200,243.486 46.237,244.355 45.061 C 245.224 43.885,246.181 42.670,246.482 42.361 C 246.784 42.052,247.428 41.149,247.915 40.353 C 248.401 39.558,249.514 38.434,250.388 37.856 C 251.682 36.999,252.094 36.398,252.614 34.611 C 253.534 31.448,255.306 30.186,257.318 31.263 M294.147 133.300 C 293.910 133.695,293.973 133.698,294.446 133.315 C 294.941 132.915,295.283 133.112,296.422 134.451 C 297.180 135.342,298.295 136.640,298.900 137.336 C 302.082 140.993,302.605 142.829,300.451 142.787 C 298.853 142.756,293.532 135.481,294.254 134.313 C 294.360 134.141,294.257 134.000,294.024 134.000 C 293.791 134.000,293.600 133.730,293.600 133.400 C 293.600 133.070,293.791 132.800,294.024 132.800 C 294.257 132.800,294.312 133.025,294.147 133.300 M226.513 146.252 C 227.661 146.830,229.245 147.865,230.033 148.552 C 230.821 149.238,233.052 150.953,234.990 152.363 C 236.929 153.773,239.434 155.915,240.557 157.124 C 241.681 158.333,243.302 159.970,244.161 160.761 C 249.943 166.093,252.325 168.499,253.950 170.648 C 254.967 171.994,257.427 174.874,259.415 177.048 C 264.983 183.136,267.337 188.362,267.876 195.831 C 268.160 199.768,267.774 200.517,264.235 202.894 C 258.962 206.436,256.804 208.415,255.589 210.821 C 252.800 216.347,249.093 215.733,245.630 209.170 C 244.884 207.757,243.357 205.671,242.237 204.536 C 241.117 203.401,239.606 201.508,238.880 200.329 C 238.153 199.151,236.506 197.343,235.218 196.312 C 233.565 194.990,232.586 193.816,231.889 192.319 C 229.371 186.913,221.713 184.569,221.277 189.071 C 221.121 190.678,226.509 201.778,228.777 204.523 C 229.623 205.547,231.002 207.558,231.841 208.992 C 232.680 210.427,233.492 211.600,233.647 211.600 C 233.801 211.600,234.811 212.725,235.892 214.100 C 236.974 215.475,238.528 216.960,239.347 217.400 C 240.590 218.068,240.939 218.557,241.467 220.371 C 241.814 221.565,242.435 223.095,242.847 223.771 C 244.433 226.371,243.575 227.863,238.941 230.559 C 237.589 231.346,234.979 233.183,233.141 234.642 C 231.304 236.101,228.630 237.823,227.200 238.470 C 225.770 239.116,223.790 240.422,222.800 241.371 C 219.907 244.143,218.540 243.907,217.191 240.400 C 216.894 239.630,215.182 237.470,213.386 235.600 C 211.589 233.730,209.338 231.120,208.384 229.800 C 207.429 228.480,205.631 226.320,204.388 225.000 C 203.145 223.680,201.542 221.733,200.826 220.673 C 200.110 219.613,199.273 218.649,198.966 218.532 C 197.782 218.077,192.838 211.889,192.227 210.097 C 191.074 206.715,189.736 206.060,187.327 207.700 C 185.215 209.137,185.210 210.440,187.300 214.856 C 188.275 216.915,189.297 219.278,189.569 220.106 C 189.842 220.934,190.733 222.464,191.549 223.506 C 192.364 224.548,193.425 226.359,193.906 227.530 C 194.387 228.702,195.313 230.333,195.964 231.154 C 196.614 231.976,197.272 233.177,197.425 233.824 C 198.189 237.053,200.067 238.788,202.811 238.798 C 203.921 238.802,205.257 240.067,206.012 241.829 C 206.469 242.894,207.306 243.918,208.179 244.482 C 209.205 245.144,209.828 245.997,210.412 247.543 C 210.857 248.722,211.724 250.432,212.339 251.343 C 212.953 252.255,213.704 253.630,214.008 254.400 C 214.311 255.170,215.562 256.880,216.787 258.200 C 223.962 265.929,225.020 271.163,219.344 270.839 C 217.957 270.760,217.264 271.035,215.075 272.534 C 212.093 274.575,210.632 275.021,208.979 274.392 C 208.341 274.149,206.564 273.687,205.030 273.364 C 202.743 272.883,201.717 272.383,199.327 270.584 C 194.326 266.820,193.958 264.904,198.067 264.023 C 200.265 263.552,203.705 261.209,207.648 257.499 C 209.877 255.401,210.302 254.320,209.424 252.980 C 208.253 251.193,206.394 251.608,201.720 254.700 C 189.847 262.555,190.298 262.641,181.191 250.800 C 180.429 249.810,179.685 248.945,179.537 248.878 C 179.389 248.811,177.407 246.482,175.134 243.703 C 172.860 240.924,169.901 237.459,168.558 236.003 C 166.878 234.182,165.900 232.706,165.426 231.278 C 164.451 228.343,162.756 227.455,160.900 228.907 C 160.312 229.367,160.239 231.926,160.775 233.333 C 160.981 233.875,161.260 235.102,161.395 236.059 C 161.753 238.598,161.966 239.206,163.197 241.200 C 163.808 242.190,164.526 243.683,164.791 244.519 C 165.057 245.354,166.007 246.884,166.903 247.919 C 167.799 248.953,168.943 250.730,169.446 251.867 C 170.100 253.344,170.877 254.290,172.166 255.177 C 174.527 256.801,177.457 260.429,178.075 262.494 C 178.362 263.451,179.426 265.065,180.629 266.367 C 181.762 267.595,183.322 269.591,184.095 270.802 C 184.867 272.013,186.532 274.083,187.795 275.402 C 193.697 281.567,194.396 284.376,190.038 284.418 C 189.027 284.427,187.570 284.682,186.800 284.983 C 180.122 287.596,179.588 287.511,172.103 282.644 C 170.421 281.550,170.325 279.954,171.879 278.919 C 177.241 275.349,177.494 270.625,172.254 271.945 C 165.547 273.633,160.951 270.722,156.850 262.188 C 155.945 260.305,154.714 258.456,153.875 257.720 C 153.088 257.029,151.772 255.504,150.951 254.332 C 149.507 252.270,146.409 248.501,144.445 246.415 C 143.919 245.857,143.054 244.428,142.523 243.239 C 141.943 241.943,140.344 239.782,138.527 237.839 C 133.428 232.388,132.838 230.930,133.779 226.107 C 134.469 222.571,134.739 220.235,134.775 217.500 C 134.803 215.389,134.978 215.167,138.365 212.928 C 139.902 211.912,141.178 211.419,142.765 211.226 C 145.623 210.879,146.567 210.346,147.205 208.715 C 147.885 206.977,151.668 198.631,153.615 194.577 C 157.153 187.207,164.355 181.989,168.316 183.925 C 171.407 185.436,172.217 184.359,172.777 178.000 C 173.000 175.470,173.456 172.516,173.791 171.436 C 174.126 170.356,174.400 168.757,174.400 167.881 C 174.400 166.560,174.787 165.784,176.677 163.316 C 180.623 158.164,183.195 157.422,196.735 157.528 C 205.954 157.599,205.846 157.628,207.787 154.593 C 208.781 153.039,209.769 152.089,211.207 151.304 C 212.320 150.697,214.420 149.343,215.874 148.295 C 220.262 145.133,223.181 144.572,226.513 146.252 M289.118 150.000 C 290.771 154.533,290.765 154.604,288.471 156.936 C 287.355 158.071,285.937 159.753,285.321 160.674 C 283.545 163.326,275.381 170.800,274.259 170.800 C 269.849 170.800,270.598 164.106,275.296 161.530 C 277.372 160.392,278.399 158.512,278.399 155.849 C 278.400 153.934,278.465 153.833,281.774 150.523 C 286.295 146.002,287.625 145.908,289.118 150.000 M305.520 148.480 C 306.269 149.229,306.104 150.400,305.249 150.400 C 304.289 150.400,303.442 149.390,303.743 148.605 C 304.022 147.878,304.859 147.819,305.520 148.480 M290.510 197.615 C 292.613 198.570,294.535 198.595,297.850 197.712 C 300.895 196.901,301.241 197.037,303.100 199.775 C 305.234 202.918,304.815 207.072,302.154 209.165 C 300.422 210.527,299.303 210.232,295.392 207.383 C 289.847 203.343,289.249 203.446,286.431 208.935 C 284.023 213.626,285.188 216.212,288.527 213.586 C 295.178 208.354,303.545 220.995,297.514 227.163 C 295.704 229.015,294.758 228.803,291.894 225.900 C 288.943 222.909,287.697 222.006,286.514 222.003 C 284.365 221.996,284.296 226.338,286.391 229.708 C 288.643 233.331,286.815 234.869,284.504 231.295 C 284.117 230.697,283.199 229.576,282.464 228.804 C 280.754 227.006,280.400 226.063,280.400 223.300 C 280.400 222.064,280.106 220.006,279.747 218.726 C 279.140 216.563,279.142 216.231,279.772 213.987 C 280.402 211.739,280.404 211.418,279.793 209.317 C 278.734 205.673,279.105 204.758,283.336 200.587 C 287.337 196.640,287.873 196.418,290.510 197.615 M267.160 212.700 C 267.948 213.350,268.015 213.834,268.104 219.435 L 268.200 225.471 266.653 228.435 C 265.802 230.066,264.859 232.225,264.557 233.234 C 263.073 238.194,258.693 237.760,257.595 232.545 C 257.357 231.414,256.525 229.434,255.746 228.145 C 251.197 220.614,251.246 219.248,256.122 217.626 C 257.839 217.055,259.566 216.031,261.573 214.395 C 264.670 211.871,265.756 211.542,267.160 212.700 M33.520 225.368 C 34.114 225.681,34.881 226.266,35.223 226.668 C 35.566 227.071,37.051 228.706,38.523 230.302 C 42.327 234.425,42.283 234.812,37.481 239.426 C 25.817 250.634,23.144 251.535,18.576 245.800 C 17.524 244.480,15.617 242.271,14.337 240.891 C 10.071 236.291,10.996 232.990,16.505 233.155 C 18.668 233.220,19.023 233.099,21.124 231.574 C 28.930 225.907,31.807 224.467,33.520 225.368 M245.382 233.448 C 246.378 233.831,247.154 235.671,247.836 239.265 C 248.178 241.068,248.725 243.331,249.052 244.294 C 249.914 246.833,249.309 248.319,246.574 250.385 C 245.372 251.292,243.911 252.792,243.328 253.718 C 242.082 255.697,241.470 256.215,239.646 256.837 C 238.901 257.090,237.661 257.726,236.890 258.249 C 233.814 260.336,231.877 259.511,226.887 253.988 C 221.376 247.888,221.632 247.268,230.912 244.228 C 235.660 242.672,239.400 239.969,240.873 237.027 C 242.379 234.021,243.844 232.858,245.382 233.448 M146.037 273.419 C 148.821 274.859,148.365 278.024,145.066 280.151 C 143.930 280.884,141.650 282.706,140.000 284.201 C 138.144 285.881,135.932 287.419,134.200 288.232 C 132.660 288.954,130.860 289.917,130.200 290.370 C 128.732 291.379,126.923 291.435,125.895 290.505 C 125.472 290.122,124.288 289.357,123.263 288.805 C 120.435 287.280,120.529 286.455,123.899 283.216 C 127.522 279.734,128.905 279.082,131.936 279.425 C 134.750 279.743,135.692 279.331,139.458 276.136 C 143.466 272.736,144.161 272.449,146.037 273.419 M108.347 291.361 C 109.672 292.339,112.411 295.738,113.422 297.660 C 114.624 299.945,111.764 300.102,110.248 297.834 C 109.942 297.375,108.777 296.010,107.660 294.800 C 104.543 291.424,105.043 288.923,108.347 291.361 " stroke="none" fill="#ebb34c" fill-rule="evenodd"></path><path id="path1" d="M0.072 119.100 C 0.112 184.605,0.212 237.345,0.294 236.300 C 0.376 235.255,0.615 234.400,0.825 234.400 C 1.035 234.400,0.990 234.053,0.726 233.630 C 0.352 233.032,0.351 232.625,0.722 231.811 C 0.985 231.234,1.200 230.327,1.200 229.795 C 1.200 228.191,2.365 226.276,4.183 224.891 C 5.128 224.171,7.408 222.180,9.251 220.466 C 11.093 218.752,13.410 216.771,14.400 216.065 C 15.390 215.359,17.146 213.980,18.302 213.001 C 24.782 207.513,36.779 209.294,42.303 216.564 C 43.321 217.904,45.081 220.015,46.214 221.255 C 47.347 222.495,49.142 224.655,50.202 226.055 C 51.263 227.455,53.510 230.130,55.196 232.000 C 56.881 233.870,58.695 236.030,59.227 236.800 C 59.759 237.570,61.523 239.640,63.147 241.400 C 64.772 243.160,67.137 245.950,68.403 247.600 C 69.670 249.250,71.198 251.050,71.800 251.600 C 72.402 252.150,73.983 254.040,75.313 255.800 C 76.643 257.560,78.836 260.170,80.186 261.600 C 81.536 263.030,83.640 265.460,84.862 267.000 C 86.083 268.540,88.144 270.989,89.441 272.442 C 90.739 273.895,92.430 275.959,93.200 277.028 C 95.069 279.622,96.270 279.870,99.439 278.318 C 101.724 277.199,101.929 277.171,105.800 277.439 C 112.861 277.929,111.114 278.875,124.927 267.082 C 130.946 261.943,131.264 261.298,129.201 258.401 C 128.791 257.825,128.142 256.554,127.759 255.577 C 127.376 254.600,126.586 253.080,126.004 252.200 C 125.421 251.320,124.563 249.416,124.097 247.968 C 123.632 246.521,122.628 244.001,121.867 242.368 C 117.216 232.385,117.472 233.280,117.176 226.000 C 117.029 222.370,116.690 218.706,116.424 217.858 C 114.882 212.952,120.480 205.944,129.854 201.042 C 131.424 200.221,133.072 199.155,133.517 198.675 C 135.692 196.324,138.446 191.662,139.437 188.654 C 141.696 181.801,144.345 178.289,148.978 176.003 C 155.554 172.759,159.206 168.991,160.806 163.800 C 163.334 155.594,164.896 153.350,171.800 148.006 C 175.414 145.208,184.044 142.552,188.038 143.009 C 189.367 143.160,190.992 143.070,192.038 142.785 C 193.007 142.522,194.897 142.168,196.237 142.000 C 198.958 141.657,202.634 139.769,206.134 136.916 C 207.270 135.990,209.820 134.280,211.800 133.116 L 215.400 131.000 220.894 130.870 C 228.693 130.685,233.890 132.510,240.600 137.788 C 242.140 138.999,244.390 140.690,245.600 141.546 C 246.810 142.402,248.949 144.454,250.353 146.107 C 251.757 147.760,253.566 149.483,254.374 149.937 C 255.181 150.391,256.161 151.114,256.550 151.545 C 258.673 153.891,259.717 153.642,264.393 149.675 C 268.862 145.885,272.423 143.061,274.301 141.818 C 276.210 140.554,279.930 136.281,280.185 135.057 C 280.284 134.586,280.433 132.490,280.517 130.400 C 280.640 127.359,280.884 126.130,281.735 124.250 C 283.716 119.878,283.332 118.903,276.510 110.967 C 275.013 109.225,272.628 106.360,271.210 104.600 C 269.792 102.840,267.364 99.940,265.816 98.156 C 264.267 96.371,261.470 93.071,259.600 90.821 C 257.730 88.571,254.628 84.901,252.707 82.665 C 250.785 80.429,248.154 77.250,246.858 75.600 C 245.563 73.950,243.471 71.447,242.209 70.037 C 240.948 68.628,238.606 65.838,237.007 63.837 C 235.407 61.837,233.606 59.750,233.006 59.200 C 226.882 53.594,224.617 42.875,228.549 38.112 C 229.054 37.501,229.962 36.081,230.566 34.958 C 231.221 33.740,232.473 32.298,233.667 31.388 C 234.769 30.548,237.296 28.378,239.284 26.566 C 241.573 24.479,244.275 22.509,246.656 21.190 L 250.414 19.108 255.707 19.283 C 262.042 19.492,262.973 19.826,266.568 23.171 C 269.756 26.136,269.167 26.167,273.567 22.804 C 275.579 21.266,277.714 19.754,278.312 19.443 C 278.911 19.133,280.652 17.485,282.182 15.780 C 288.085 9.204,296.104 7.936,303.449 12.417 C 308.826 15.698,311.024 14.888,318.400 6.902 C 320.284 4.863,322.442 3.030,324.200 1.975 C 325.740 1.051,327.075 0.229,327.167 0.148 C 327.258 0.067,253.683 -0.000,163.667 -0.000 L 0.000 0.000 0.072 119.100 M339.681 0.285 C 340.293 0.378,340.866 0.779,341.003 1.209 C 341.136 1.627,342.269 2.593,343.522 3.355 C 344.808 4.138,346.487 5.645,347.377 6.816 C 348.245 7.957,349.955 9.996,351.177 11.348 C 352.400 12.700,354.107 14.795,354.971 16.003 C 355.836 17.211,358.009 19.730,359.801 21.600 C 361.593 23.470,363.620 25.827,364.306 26.838 C 365.993 29.324,367.921 30.946,371.119 32.571 C 373.792 33.930,375.953 35.906,379.747 40.460 C 382.264 43.482,384.407 43.802,386.361 41.447 C 388.010 39.461,390.101 39.789,393.365 42.546 C 395.736 44.549,398.087 45.429,398.455 44.451 C 398.596 44.077,399.001 43.531,399.355 43.237 C 399.934 42.757,400.000 40.500,400.000 21.351 L 400.000 0.000 369.300 0.060 C 352.415 0.093,339.086 0.194,339.681 0.285 M332.864 14.483 C 332.279 15.188,330.616 17.033,329.168 18.583 C 327.721 20.132,326.123 22.030,325.618 22.800 C 325.112 23.570,323.626 25.225,322.315 26.477 C 319.633 29.038,319.576 29.499,321.628 32.000 C 322.260 32.770,323.443 34.377,324.257 35.571 C 326.149 38.346,331.026 43.491,332.084 43.827 C 333.209 44.184,334.431 43.435,335.581 41.684 C 337.341 39.004,338.077 38.440,341.157 37.408 C 344.887 36.157,344.679 36.298,346.928 33.522 C 349.991 29.741,349.402 27.875,343.029 21.188 C 341.451 19.531,339.575 17.326,338.861 16.288 C 336.651 13.076,334.554 12.445,332.864 14.483 M295.484 24.076 C 295.173 24.584,294.453 25.823,293.884 26.829 C 293.315 27.834,291.463 29.899,289.767 31.416 C 288.072 32.933,286.181 34.995,285.564 35.996 C 284.948 36.998,283.984 38.218,283.422 38.706 C 281.804 40.113,282.077 41.420,284.739 45.029 C 288.333 49.900,292.140 53.362,293.512 53.007 C 294.110 52.852,296.160 52.634,298.066 52.524 C 302.595 52.261,303.215 51.754,303.123 48.392 L 303.057 46.004 306.128 42.848 C 310.399 38.460,310.379 38.328,304.376 31.600 C 302.903 29.950,300.900 27.430,299.924 26.000 C 297.903 23.038,296.493 22.428,295.484 24.076 M254.296 32.700 C 253.950 33.085,253.535 34.117,253.372 34.993 C 253.094 36.488,252.065 37.859,250.200 39.217 C 248.266 40.626,242.800 48.369,242.800 49.700 C 242.800 50.698,246.010 55.534,247.752 57.161 C 249.252 58.562,250.846 58.366,253.329 56.476 C 256.085 54.379,256.697 54.094,259.145 53.770 C 261.893 53.405,263.039 52.464,263.363 50.308 C 263.523 49.240,264.141 47.941,265.010 46.844 C 267.209 44.065,266.944 43.003,263.002 38.800 C 261.867 37.590,260.273 35.673,259.460 34.539 C 257.523 31.840,255.662 31.177,254.296 32.700 M219.695 146.934 C 218.977 147.194,217.267 148.235,215.895 149.247 C 214.523 150.259,212.860 151.366,212.200 151.708 C 210.719 152.474,209.102 154.182,208.239 155.893 C 207.071 158.207,206.207 158.395,196.929 158.348 C 182.951 158.276,180.420 159.034,176.985 164.320 C 175.495 166.613,173.211 176.958,173.203 181.446 C 173.197 184.638,171.056 186.155,168.439 184.820 C 165.317 183.227,163.886 183.875,158.200 189.458 C 155.602 192.008,154.557 193.850,150.967 202.200 C 146.809 211.873,147.063 211.553,143.170 212.026 C 139.332 212.491,135.600 215.285,135.600 217.693 C 135.600 219.206,135.130 222.869,134.396 227.084 C 133.804 230.484,134.627 232.385,138.428 236.400 C 140.528 238.619,142.039 240.645,142.776 242.232 C 143.397 243.569,144.941 245.819,146.207 247.232 C 147.472 248.644,149.241 250.790,150.137 252.000 C 151.034 253.210,152.716 255.219,153.877 256.464 C 155.160 257.840,156.615 260.036,157.586 262.064 C 158.679 264.344,160.056 266.349,161.938 268.400 L 164.690 271.400 167.845 271.349 C 169.580 271.321,171.930 271.231,173.067 271.149 C 177.622 270.821,178.401 273.618,174.800 277.369 C 171.265 281.050,171.906 282.546,178.041 284.933 L 180.933 286.058 184.767 284.853 C 186.875 284.190,189.275 283.539,190.100 283.406 C 192.758 282.977,191.832 280.640,187.008 275.600 C 185.639 274.170,184.093 272.285,183.573 271.412 C 183.052 270.538,181.604 268.696,180.355 267.318 C 178.936 265.752,177.807 264.034,177.343 262.733 C 176.524 260.442,173.818 257.215,171.184 255.389 C 170.017 254.580,169.229 253.584,168.560 252.072 C 168.035 250.883,167.084 249.318,166.448 248.593 C 164.843 246.766,160.800 238.411,160.800 236.922 C 160.800 236.250,160.530 234.935,160.200 234.000 C 157.701 226.918,163.282 224.588,166.380 231.419 C 167.074 232.950,168.537 235.048,170.065 236.703 C 173.072 239.960,178.538 246.453,183.044 252.120 C 189.427 260.148,190.719 260.789,194.895 258.000 C 196.213 257.120,197.513 256.400,197.784 256.400 C 198.055 256.400,199.760 255.329,201.573 254.020 C 205.248 251.365,206.905 250.666,208.750 250.991 C 210.911 251.372,210.184 247.799,207.612 245.400 C 206.904 244.740,205.892 243.351,205.363 242.314 C 204.317 240.263,203.756 239.842,201.541 239.442 C 199.400 239.056,198.158 237.870,197.195 235.291 C 196.724 234.031,195.892 232.413,195.345 231.695 C 194.799 230.977,193.903 229.376,193.355 228.137 C 192.807 226.898,191.737 225.126,190.977 224.198 C 190.217 223.271,189.256 221.542,188.840 220.356 C 188.425 219.170,187.346 216.629,186.443 214.709 C 184.431 210.433,184.391 209.529,186.136 207.784 C 188.999 204.921,191.013 205.486,192.957 209.695 C 193.968 211.884,195.100 213.420,197.549 215.927 C 199.337 217.758,201.377 220.098,202.082 221.127 C 202.787 222.157,204.543 224.276,205.982 225.834 C 210.786 231.036,217.003 238.478,218.206 240.467 C 219.344 242.347,220.484 242.379,222.470 240.584 C 223.369 239.772,225.116 238.653,226.352 238.097 C 227.588 237.541,230.310 235.793,232.400 234.212 C 234.490 232.632,237.508 230.500,239.107 229.473 C 242.833 227.081,243.190 226.347,241.886 223.760 C 241.343 222.682,240.773 221.220,240.620 220.511 C 240.366 219.335,238.418 217.200,237.599 217.200 C 237.041 217.200,231.993 211.127,231.115 209.400 C 230.668 208.520,229.443 206.630,228.393 205.200 C 225.825 201.703,220.400 191.082,220.400 189.550 C 220.400 187.158,222.675 185.624,225.385 186.189 C 225.943 186.305,226.847 186.493,227.393 186.606 C 228.938 186.926,231.080 189.055,232.773 191.954 C 233.623 193.410,235.036 195.177,235.911 195.881 C 238.203 197.722,244.019 204.931,246.200 208.632 C 248.561 212.639,249.458 213.600,250.837 213.600 C 252.672 213.600,253.157 213.212,254.776 210.454 C 256.323 207.817,257.368 206.878,265.200 201.093 C 269.449 197.955,266.645 186.377,259.790 178.753 C 257.933 176.689,255.355 173.650,254.059 172.000 C 252.763 170.350,249.925 167.339,247.751 165.309 C 242.612 160.509,242.365 160.266,239.463 157.179 C 237.189 154.759,232.097 150.857,227.095 147.700 C 224.837 146.275,222.251 146.007,219.695 146.934 M284.475 148.945 C 281.326 151.268,279.200 154.164,279.199 156.131 C 279.198 158.536,278.131 160.302,275.405 162.409 C 271.885 165.129,270.856 168.797,273.432 169.444 C 275.217 169.892,282.102 164.183,284.978 159.869 C 285.736 158.731,286.997 157.200,287.778 156.468 C 289.409 154.939,289.527 154.016,288.478 151.000 C 287.285 147.574,286.724 147.285,284.475 148.945 M322.400 171.469 C 320.999 171.928,319.428 172.003,315.313 171.808 C 309.576 171.536,309.522 171.549,306.519 173.841 C 305.540 174.588,304.483 175.200,304.171 175.200 C 303.401 175.200,300.770 177.624,299.413 179.581 C 297.871 181.806,298.205 182.846,300.806 183.927 C 302.978 184.830,308.757 188.478,311.461 190.653 C 314.937 193.450,317.608 200.015,317.592 205.720 C 317.579 210.206,315.514 218.531,313.206 223.400 C 312.372 225.160,311.416 227.522,311.081 228.649 C 310.747 229.776,310.167 231.290,309.793 232.014 C 309.418 232.738,308.772 234.319,308.356 235.527 C 307.941 236.735,307.176 238.281,306.658 238.962 C 306.140 239.643,305.349 240.920,304.900 241.800 C 303.814 243.932,302.960 244.644,300.372 245.575 C 299.177 246.005,297.428 246.638,296.484 246.982 C 294.205 247.812,287.686 246.965,282.871 245.212 C 277.501 243.257,276.205 243.706,269.450 249.857 C 265.442 253.506,264.988 254.077,262.977 257.991 C 259.935 263.910,258.403 265.745,253.788 268.997 C 251.595 270.543,249.237 272.352,248.550 273.017 C 247.782 273.761,245.741 274.818,243.260 275.758 C 239.927 277.020,238.781 277.690,236.710 279.586 C 230.411 285.354,217.902 291.240,211.532 291.433 C 207.458 291.556,207.435 291.567,203.127 295.223 C 192.905 303.899,178.667 304.946,168.576 297.763 C 163.788 294.355,162.456 294.429,158.278 298.334 C 154.346 302.010,150.220 305.228,147.677 306.604 C 146.261 307.370,144.862 308.627,143.479 310.376 L 141.404 313.000 141.164 316.800 C 140.981 319.708,140.579 321.596,139.451 324.845 C 137.962 329.138,137.906 330.600,139.202 331.401 C 139.451 331.555,140.670 333.057,141.912 334.740 C 143.154 336.423,145.271 338.975,146.616 340.411 C 147.962 341.847,150.062 344.367,151.284 346.011 C 152.505 347.655,154.627 350.260,155.999 351.800 C 159.290 355.494,166.248 363.734,167.990 366.000 C 168.751 366.990,170.561 369.150,172.012 370.800 C 173.462 372.450,175.268 374.610,176.025 375.600 C 176.781 376.590,178.705 378.802,180.299 380.516 C 181.894 382.230,183.951 384.660,184.872 385.916 C 185.792 387.172,187.671 389.425,189.047 390.922 C 191.754 393.865,193.600 397.092,193.600 398.879 L 193.600 400.000 296.800 400.000 L 400.000 400.000 400.000 319.192 L 400.000 238.385 398.900 238.628 C 398.295 238.762,397.243 239.040,396.563 239.246 C 392.262 240.548,385.269 238.794,383.164 235.886 C 382.493 234.959,381.003 233.461,379.853 232.558 C 377.762 230.915,372.838 225.614,370.605 222.600 C 369.953 221.720,368.065 219.450,366.410 217.555 C 364.754 215.660,361.870 212.268,360.000 210.019 C 358.130 207.769,354.847 203.829,352.704 201.264 C 350.561 198.699,347.951 195.520,346.904 194.200 C 345.857 192.880,343.725 190.450,342.166 188.800 C 340.607 187.150,337.954 184.090,336.270 182.000 C 332.921 177.843,329.787 174.123,327.929 172.100 C 326.575 170.626,325.387 170.490,322.400 171.469 M286.066 199.216 C 281.473 202.016,279.444 205.720,280.598 209.195 C 281.097 210.698,281.207 211.755,280.987 212.944 C 280.080 217.843,281.536 227.200,283.206 227.200 C 283.361 227.200,283.595 226.165,283.725 224.900 C 284.216 220.131,286.686 219.900,291.200 224.200 C 294.699 227.534,295.794 227.897,297.148 226.176 C 301.652 220.449,295.000 210.317,289.286 214.200 C 286.899 215.822,284.497 215.397,283.810 213.230 C 283.494 212.237,286.934 205.467,288.301 204.392 C 289.955 203.091,291.168 203.400,295.415 206.200 C 299.693 209.021,300.961 209.333,302.304 207.900 C 304.210 205.865,304.283 203.568,302.537 200.504 C 301.341 198.405,300.376 198.125,296.713 198.817 C 294.505 199.233,293.441 199.245,291.636 198.872 C 288.489 198.222,287.608 198.276,286.066 199.216 M264.800 213.094 C 264.470 213.220,262.985 214.272,261.500 215.430 C 260.016 216.588,257.856 217.843,256.700 218.219 C 252.536 219.575,252.484 219.868,255.396 225.531 C 256.603 227.879,257.881 230.790,258.235 232.000 C 259.543 236.474,263.987 236.818,263.999 232.446 C 263.999 232.142,264.697 230.522,265.548 228.846 C 267.447 225.111,268.063 222.437,267.587 220.000 C 267.393 219.010,267.227 217.268,267.217 216.129 C 267.195 213.499,266.387 212.484,264.800 213.094 M27.520 228.365 C 25.387 229.664,22.612 231.463,21.355 232.363 C 19.271 233.856,18.852 234.000,16.597 234.000 C 12.335 234.000,11.458 236.461,14.500 239.889 C 15.435 240.943,17.514 243.379,19.120 245.302 C 22.910 249.843,25.763 249.677,30.377 244.649 C 30.914 244.064,32.187 243.050,33.206 242.396 C 35.896 240.670,40.400 235.534,40.400 234.192 C 40.400 232.707,33.840 225.999,32.390 226.002 C 31.845 226.002,29.654 227.066,27.520 228.365 M243.508 234.828 C 243.127 235.050,242.333 236.079,241.742 237.116 C 239.597 240.883,236.334 243.296,231.052 245.021 C 222.342 247.866,222.300 248.081,229.084 255.153 C 232.843 259.071,233.318 259.158,237.881 256.763 C 241.419 254.906,242.246 254.257,243.047 252.709 C 243.358 252.108,244.609 250.880,245.827 249.980 C 248.783 247.796,249.095 246.905,248.062 243.600 C 247.616 242.170,247.029 239.846,246.760 238.435 C 246.124 235.104,245.060 233.923,243.508 234.828 M0.050 245.929 C 0.004 253.015,0.057 253.648,0.682 253.527 C 1.058 253.455,1.463 253.015,1.582 252.549 C 1.702 252.084,2.385 251.214,3.100 250.616 C 4.672 249.301,4.747 248.223,3.403 246.242 C 1.838 243.936,0.721 241.542,0.397 239.800 C 0.217 238.829,0.080 241.240,0.050 245.929 M211.467 253.467 C 211.320 253.613,211.200 254.043,211.200 254.421 C 211.200 255.882,201.554 264.085,198.735 265.022 C 196.426 265.789,196.166 266.861,197.900 268.473 C 203.369 273.559,210.007 274.749,215.006 271.539 C 216.488 270.588,217.594 270.213,219.312 270.081 C 223.899 269.726,222.780 265.842,216.007 258.600 C 214.772 257.280,213.351 255.525,212.849 254.700 C 211.857 253.073,211.859 253.074,211.467 253.467 M13.846 265.252 C 12.332 265.927,9.251 267.729,7.000 269.256 C 4.581 270.897,2.311 272.130,1.451 272.269 L -0.005 272.506 0.030 277.076 C 0.064 281.496,0.097 281.661,1.025 282.084 C 1.553 282.325,2.087 282.845,2.213 283.240 C 2.338 283.636,2.837 284.085,3.320 284.238 C 3.803 284.392,5.382 285.659,6.827 287.054 C 10.213 290.323,11.160 290.538,13.810 288.635 C 14.904 287.849,16.700 286.599,17.800 285.857 C 20.511 284.029,26.675 278.037,27.118 276.800 C 27.785 274.940,26.915 273.396,22.519 268.633 C 17.699 263.409,17.848 263.468,13.846 265.252 M143.606 274.074 C 143.059 274.277,141.619 275.304,140.406 276.356 C 136.074 280.110,135.148 280.546,132.158 280.240 C 128.181 279.832,121.265 284.846,122.737 287.070 C 123.131 287.665,127.321 290.400,127.839 290.400 C 129.154 290.400,137.023 285.864,139.290 283.799 C 140.670 282.541,142.828 280.781,144.085 279.888 C 148.002 277.104,147.629 272.577,143.606 274.074 M0.028 312.514 C 0.000 327.108,0.007 327.225,0.800 326.800 C 1.240 326.565,1.600 326.161,1.600 325.903 C 1.600 324.016,6.040 318.111,8.271 317.031 C 13.840 314.336,13.798 314.225,2.288 301.072 C 1.359 300.011,0.478 298.841,0.328 298.472 C 0.179 298.102,0.044 304.421,0.028 312.514 M0.078 361.400 C 0.070 364.260,0.154 366.375,0.265 366.100 C 0.376 365.825,0.708 365.600,1.004 365.600 C 1.683 365.600,2.800 363.401,2.800 362.065 C 2.800 360.923,1.307 357.600,0.794 357.600 C 0.609 357.600,0.376 357.285,0.276 356.900 C 0.175 356.515,0.086 358.540,0.078 361.400 M0.054 376.149 C 0.007 378.551,0.076 378.835,0.600 378.400 C 1.249 377.861,1.439 375.200,0.828 375.200 C 0.623 375.200,0.378 374.795,0.282 374.300 C 0.187 373.805,0.084 374.637,0.054 376.149 M0.028 396.700 L 0.000 400.000 2.400 400.000 C 5.019 400.000,5.262 399.723,3.900 398.287 C 2.077 396.364,0.594 394.584,0.329 394.000 C 0.179 393.670,0.044 394.885,0.028 396.700 " stroke="none" fill="#f3d29b" fill-rule="evenodd"></path><path id="path2" d="M332.800 0.302 C 332.800 0.522,333.070 0.926,333.400 1.200 C 333.735 1.478,334.000 1.521,334.000 1.298 C 334.000 1.078,333.730 0.674,333.400 0.400 C 333.065 0.122,332.800 0.079,332.800 0.302 M323.776 2.224 C 322.453 3.017,320.071 5.089,318.400 6.899 C 311.029 14.886,308.827 15.698,303.449 12.417 C 296.104 7.936,288.085 9.204,282.182 15.780 C 280.652 17.485,278.911 19.133,278.312 19.443 C 277.714 19.754,275.579 21.266,273.567 22.804 C 269.167 26.167,269.756 26.136,266.568 23.171 C 262.973 19.826,262.042 19.492,255.707 19.283 L 250.414 19.108 246.656 21.190 C 244.275 22.509,241.573 24.479,239.284 26.566 C 237.296 28.378,234.769 30.548,233.667 31.388 C 232.473 32.298,231.221 33.740,230.566 34.958 C 229.962 36.081,229.054 37.501,228.549 38.112 C 224.617 42.875,226.882 53.594,233.006 59.200 C 233.606 59.750,235.407 61.837,237.007 63.837 C 238.606 65.838,240.948 68.628,242.209 70.037 C 243.471 71.447,245.563 73.950,246.858 75.600 C 248.154 77.250,250.785 80.429,252.707 82.665 C 254.628 84.901,257.730 88.571,259.600 90.821 C 261.470 93.071,264.267 96.371,265.816 98.156 C 267.364 99.940,269.792 102.840,271.210 104.600 C 272.628 106.360,275.013 109.225,276.510 110.967 C 283.332 118.903,283.716 119.878,281.735 124.250 C 280.884 126.130,280.640 127.359,280.517 130.400 C 280.433 132.490,280.284 134.586,280.185 135.057 C 279.930 136.281,276.210 140.554,274.301 141.818 C 272.423 143.061,268.862 145.885,264.393 149.675 C 259.717 153.642,258.673 153.891,256.550 151.545 C 256.161 151.114,255.181 150.391,254.374 149.937 C 253.566 149.483,251.757 147.760,250.353 146.107 C 248.949 144.454,246.810 142.402,245.600 141.546 C 244.390 140.690,242.140 138.999,240.600 137.788 C 233.890 132.510,228.693 130.685,220.894 130.870 L 215.400 131.000 211.800 133.116 C 209.820 134.280,207.270 135.990,206.134 136.916 C 202.634 139.769,198.958 141.657,196.237 142.000 C 194.897 142.168,193.007 142.522,192.038 142.785 C 190.992 143.070,189.367 143.160,188.038 143.009 C 184.044 142.552,175.414 145.208,171.800 148.006 C 164.896 153.350,163.334 155.594,160.806 163.800 C 159.206 168.991,155.554 172.759,148.978 176.003 C 144.345 178.289,141.696 181.801,139.437 188.654 C 138.446 191.662,135.692 196.324,133.517 198.675 C 133.072 199.155,131.424 200.221,129.854 201.042 C 120.480 205.944,114.882 212.952,116.424 217.858 C 116.690 218.706,117.029 222.370,117.176 226.000 C 117.472 233.280,117.216 232.385,121.867 242.368 C 122.628 244.001,123.632 246.521,124.097 247.968 C 124.563 249.416,125.421 251.320,126.004 252.200 C 126.586 253.080,127.376 254.600,127.759 255.577 C 128.142 256.554,128.791 257.825,129.201 258.401 C 131.264 261.298,130.946 261.943,124.927 267.082 C 111.114 278.875,112.861 277.929,105.800 277.439 C 101.929 277.171,101.724 277.199,99.439 278.318 C 96.270 279.870,95.069 279.622,93.200 277.028 C 92.430 275.959,90.739 273.895,89.441 272.442 C 88.144 270.989,86.083 268.540,84.862 267.000 C 83.640 265.460,81.536 263.030,80.186 261.600 C 78.836 260.170,76.643 257.560,75.313 255.800 C 73.983 254.040,72.402 252.150,71.800 251.600 C 71.198 251.050,69.670 249.250,68.403 247.600 C 67.137 245.950,64.772 243.160,63.147 241.400 C 61.523 239.640,59.759 237.570,59.227 236.800 C 58.695 236.030,56.881 233.870,55.196 232.000 C 53.510 230.130,51.263 227.455,50.202 226.055 C 49.142 224.655,47.347 222.495,46.214 221.255 C 45.081 220.015,43.321 217.904,42.303 216.564 C 36.779 209.294,24.782 207.513,18.302 213.001 C 17.146 213.980,15.390 215.359,14.400 216.065 C 13.410 216.771,11.093 218.752,9.251 220.466 C 7.408 222.180,5.128 224.171,4.183 224.891 C 2.410 226.242,1.200 228.186,1.200 229.685 C 1.200 230.157,0.988 231.129,0.729 231.845 C 0.238 233.203,0.725 234.416,1.749 234.387 C 1.997 234.380,1.849 234.109,1.420 233.785 C 0.731 233.264,0.696 233.042,1.120 231.869 C 1.384 231.140,1.600 230.054,1.600 229.457 C 1.600 228.673,2.117 227.902,3.459 226.686 C 4.482 225.759,6.777 223.643,8.559 221.984 C 10.342 220.326,13.172 217.942,14.848 216.688 C 16.524 215.434,18.132 214.123,18.421 213.775 C 22.767 208.539,36.818 210.435,41.594 216.902 C 42.530 218.169,44.411 220.419,45.775 221.902 C 47.139 223.386,49.023 225.647,49.961 226.927 C 50.899 228.208,52.776 230.432,54.133 231.872 C 55.490 233.311,57.519 235.722,58.643 237.230 C 59.767 238.738,61.870 241.194,63.317 242.686 C 64.764 244.179,66.454 246.154,67.074 247.075 C 67.693 247.997,69.465 250.157,71.010 251.875 C 72.556 253.594,74.439 255.810,75.194 256.800 C 75.949 257.790,77.515 259.641,78.674 260.913 C 79.833 262.184,82.225 264.974,83.990 267.113 C 85.754 269.251,88.281 272.251,89.605 273.779 C 90.945 275.327,92.186 277.205,92.404 278.016 C 93.277 281.256,95.380 281.663,99.462 279.380 C 101.862 278.038,102.278 277.931,104.148 278.173 C 111.565 279.133,112.624 278.883,116.571 275.237 C 117.687 274.206,119.590 272.567,120.800 271.595 C 122.010 270.623,123.450 269.391,124.000 268.858 C 124.550 268.325,126.223 266.897,127.718 265.685 C 130.586 263.359,131.200 262.572,131.200 261.221 C 131.200 260.199,127.817 253.077,126.499 251.322 C 125.971 250.620,125.286 248.834,124.976 247.355 C 124.655 245.821,123.810 243.652,123.007 242.304 C 122.233 241.005,121.600 239.866,121.600 239.772 C 121.600 239.678,120.838 237.936,119.906 235.901 L 118.213 232.200 117.920 225.400 C 117.758 221.660,117.514 217.864,117.377 216.965 C 117.189 215.725,117.330 214.954,117.964 213.771 C 118.424 212.914,118.800 211.844,118.800 211.394 C 118.800 209.686,125.684 203.999,131.054 201.271 C 132.827 200.370,134.858 198.519,135.917 196.838 C 136.277 196.267,137.144 195.080,137.845 194.200 C 138.545 193.320,139.608 191.160,140.207 189.400 C 141.122 186.712,143.112 182.565,144.966 179.478 C 145.205 179.081,146.562 178.199,147.982 177.519 C 155.830 173.756,161.022 168.399,162.187 162.861 C 163.387 157.157,166.008 153.438,172.282 148.535 C 175.265 146.203,184.217 143.586,188.108 143.909 C 189.362 144.013,191.236 143.884,192.274 143.623 C 193.311 143.362,195.249 143.056,196.580 142.943 C 198.433 142.787,199.469 142.428,201.000 141.415 C 202.100 140.687,203.408 139.883,203.906 139.628 C 204.405 139.373,205.726 138.354,206.843 137.362 C 207.960 136.370,209.892 135.048,211.137 134.425 C 212.382 133.801,214.120 132.898,215.000 132.416 C 216.484 131.604,217.027 131.552,222.513 131.692 L 228.426 131.843 233.313 134.321 C 236.001 135.684,239.100 137.524,240.200 138.411 C 241.300 139.297,243.192 140.782,244.405 141.711 C 245.618 142.640,247.937 144.840,249.558 146.600 C 251.180 148.360,253.189 150.268,254.024 150.840 C 254.859 151.413,256.109 152.358,256.802 152.940 C 258.592 154.446,259.932 154.310,262.253 152.385 C 269.239 146.593,273.617 143.201,275.036 142.480 C 276.141 141.919,277.408 140.646,278.936 138.564 L 281.200 135.480 281.200 131.707 C 281.200 128.447,281.363 127.526,282.400 124.936 C 284.576 119.503,284.172 118.526,275.823 109.000 C 274.474 107.460,272.746 105.390,271.985 104.400 C 271.223 103.410,268.980 100.710,267.000 98.400 C 265.020 96.090,262.683 93.300,261.808 92.200 C 260.933 91.100,260.027 90.001,259.795 89.758 C 259.365 89.307,257.325 86.950,252.734 81.600 C 251.319 79.950,248.565 76.620,246.615 74.200 C 244.664 71.780,242.961 69.710,242.829 69.600 C 242.357 69.207,238.148 64.173,237.106 62.755 C 236.521 61.961,234.853 60.013,233.397 58.427 C 227.403 51.895,225.682 43.567,229.323 38.716 C 229.866 37.992,230.777 36.468,231.347 35.330 C 232.051 33.922,233.122 32.690,234.692 31.481 C 235.961 30.503,238.530 28.313,240.400 26.614 C 244.137 23.219,249.241 20.311,251.355 20.371 C 252.040 20.390,254.446 20.403,256.703 20.399 C 261.752 20.390,262.839 20.802,266.158 23.989 C 269.462 27.163,270.769 26.847,276.800 21.415 C 277.350 20.919,278.563 20.097,279.495 19.586 C 280.426 19.076,281.665 17.972,282.247 17.132 C 286.543 10.932,296.519 8.630,301.757 12.629 C 303.696 14.110,307.100 15.600,308.543 15.600 C 309.898 15.600,313.197 12.977,318.800 7.444 C 321.550 4.729,324.385 2.208,325.100 1.843 C 325.815 1.478,326.400 1.094,326.400 0.990 C 326.400 0.673,326.238 0.749,323.776 2.224 M341.600 2.566 C 341.600 2.657,342.466 3.367,343.524 4.144 C 344.582 4.921,346.279 6.601,347.295 7.878 C 348.311 9.155,349.798 10.920,350.599 11.800 C 351.400 12.680,353.066 14.750,354.300 16.400 C 355.534 18.050,357.919 20.840,359.600 22.600 C 361.281 24.360,363.338 26.751,364.172 27.913 C 365.945 30.386,367.430 31.592,370.653 33.178 C 373.244 34.454,375.399 36.415,378.720 40.518 C 382.579 45.287,385.275 46.190,386.790 43.220 C 388.155 40.544,389.469 40.537,392.786 43.189 C 394.173 44.298,395.885 45.292,396.656 45.437 C 398.152 45.718,398.993 45.369,397.757 44.980 C 395.849 44.379,394.465 43.576,392.800 42.105 C 389.937 39.574,388.805 39.592,385.210 42.224 C 383.492 43.482,382.251 43.281,380.662 41.486 C 374.623 34.662,373.846 33.933,371.179 32.589 C 367.931 30.954,366.005 29.342,364.306 26.838 C 363.620 25.827,361.593 23.470,359.801 21.600 C 358.009 19.730,355.836 17.211,354.971 16.003 C 354.107 14.795,352.400 12.700,351.177 11.348 C 349.955 9.996,348.245 7.958,347.377 6.819 C 345.808 4.759,341.600 1.661,341.600 2.566 M333.578 12.661 C 333.236 12.753,332.696 13.227,332.378 13.714 C 332.060 14.201,330.900 15.510,329.800 16.622 C 327.684 18.762,325.598 21.286,324.032 23.600 C 323.511 24.370,322.362 25.540,321.479 26.200 C 318.513 28.416,318.517 29.438,321.507 33.083 C 322.553 34.358,323.885 36.120,324.467 37.000 C 326.033 39.365,331.808 45.200,332.583 45.200 C 333.722 45.200,334.612 44.517,335.808 42.724 C 337.707 39.877,338.877 38.809,340.581 38.369 C 345.197 37.178,346.785 35.919,349.309 31.455 C 350.483 29.378,348.981 26.550,343.649 20.800 C 342.323 19.370,340.465 17.182,339.519 15.938 C 337.157 12.830,335.775 12.068,333.578 12.661 M336.401 13.801 C 337.040 14.131,338.147 15.250,338.861 16.288 C 339.575 17.326,341.451 19.531,343.029 21.188 C 349.402 27.875,349.991 29.741,346.928 33.522 C 344.679 36.298,344.887 36.157,341.157 37.408 C 338.077 38.440,337.341 39.004,335.581 41.684 C 334.431 43.435,333.209 44.184,332.084 43.827 C 331.026 43.491,326.149 38.346,324.257 35.571 C 323.443 34.377,322.260 32.770,321.628 32.000 C 319.576 29.499,319.633 29.038,322.315 26.477 C 323.626 25.225,325.112 23.570,325.618 22.800 C 326.123 22.030,327.721 20.132,329.168 18.583 C 330.616 17.033,332.279 15.188,332.864 14.483 C 334.052 13.050,334.706 12.924,336.401 13.801 M295.775 22.562 C 295.334 22.871,294.439 24.155,293.786 25.414 C 292.964 27.000,291.475 28.740,288.936 31.081 C 286.921 32.939,285.057 34.979,284.794 35.614 C 284.531 36.250,283.727 37.218,283.008 37.767 C 280.609 39.597,280.833 40.859,284.440 45.823 C 288.457 51.352,291.713 54.140,293.754 53.798 C 294.659 53.646,296.570 53.479,298.000 53.427 C 301.934 53.284,301.968 53.276,303.020 52.141 C 303.859 51.235,303.986 50.749,303.900 48.773 L 303.800 46.463 306.900 43.278 C 311.405 38.648,310.925 36.400,303.979 29.600 C 301.964 27.627,301.158 26.501,300.640 24.932 C 299.767 22.290,297.642 21.255,295.775 22.562 M299.924 26.000 C 300.900 27.430,302.903 29.950,304.376 31.600 C 310.379 38.328,310.399 38.460,306.128 42.848 L 303.057 46.004 303.123 48.392 C 303.215 51.754,302.595 52.261,298.066 52.524 C 296.160 52.634,294.110 52.852,293.512 53.007 C 292.140 53.362,288.333 49.900,284.739 45.029 C 282.077 41.420,281.804 40.113,283.422 38.706 C 283.984 38.218,284.948 36.998,285.564 35.996 C 286.181 34.995,288.072 32.933,289.767 31.416 C 291.463 29.899,293.315 27.834,293.884 26.829 C 295.925 23.220,295.993 23.145,297.100 23.276 C 297.881 23.368,298.605 24.067,299.924 26.000 M254.280 31.609 C 253.645 32.108,253.008 33.256,252.614 34.611 C 252.094 36.398,251.682 36.999,250.388 37.856 C 249.514 38.434,248.401 39.558,247.915 40.353 C 247.428 41.149,246.784 42.052,246.482 42.361 C 246.181 42.670,245.224 43.885,244.355 45.061 C 243.486 46.237,242.604 47.200,242.395 47.200 C 241.957 47.200,241.377 49.120,241.553 49.982 C 241.730 50.844,245.156 55.525,247.047 57.489 C 249.041 59.560,250.032 59.650,252.440 57.978 C 253.408 57.307,254.855 56.306,255.656 55.754 C 256.521 55.159,258.064 54.614,259.456 54.412 C 263.095 53.883,264.000 53.130,264.000 50.626 C 264.000 50.111,264.601 48.815,265.335 47.745 C 268.178 43.603,268.184 43.641,263.930 38.763 C 262.313 36.907,260.548 34.762,260.008 33.995 C 257.735 30.765,256.177 30.116,254.280 31.609 M257.358 32.239 C 257.701 32.371,258.647 33.406,259.460 34.539 C 260.273 35.673,261.867 37.590,263.002 38.800 C 266.944 43.003,267.209 44.065,265.010 46.844 C 264.141 47.941,263.523 49.240,263.363 50.308 C 263.039 52.464,261.893 53.405,259.145 53.770 C 256.697 54.094,256.085 54.379,253.329 56.476 C 250.846 58.366,249.252 58.562,247.752 57.161 C 246.010 55.534,242.800 50.698,242.800 49.700 C 242.800 48.369,248.266 40.626,250.200 39.217 C 252.065 37.859,253.094 36.488,253.372 34.993 C 253.847 32.432,255.281 31.442,257.358 32.239 M293.600 133.400 C 293.600 133.730,293.791 134.000,294.024 134.000 C 294.257 134.000,294.360 134.141,294.254 134.313 C 293.532 135.481,298.853 142.756,300.451 142.787 C 302.605 142.829,302.082 140.993,298.900 137.336 C 298.295 136.640,297.180 135.342,296.422 134.451 C 295.283 133.112,294.941 132.915,294.446 133.315 C 293.973 133.698,293.910 133.695,294.147 133.300 C 294.312 133.025,294.257 132.800,294.024 132.800 C 293.791 132.800,293.600 133.070,293.600 133.400 M220.359 145.823 C 219.346 146.135,217.328 147.247,215.874 148.295 C 214.420 149.343,212.320 150.697,211.207 151.304 C 209.769 152.089,208.781 153.039,207.787 154.593 C 205.846 157.628,205.954 157.599,196.735 157.528 C 183.195 157.422,180.623 158.164,176.677 163.316 C 174.787 165.784,174.400 166.560,174.400 167.881 C 174.400 168.757,174.126 170.356,173.791 171.436 C 173.456 172.516,173.000 175.470,172.777 178.000 C 172.217 184.359,171.407 185.436,168.316 183.925 C 164.355 181.989,157.153 187.207,153.615 194.577 C 151.668 198.631,147.885 206.977,147.205 208.715 C 146.567 210.346,145.623 210.879,142.765 211.226 C 141.178 211.419,139.902 211.912,138.365 212.928 C 134.978 215.167,134.803 215.389,134.775 217.500 C 134.739 220.235,134.469 222.571,133.779 226.107 C 132.838 230.930,133.428 232.388,138.527 237.839 C 140.344 239.782,141.943 241.943,142.523 243.239 C 143.054 244.428,143.919 245.857,144.445 246.415 C 146.409 248.501,149.507 252.270,150.951 254.332 C 151.772 255.504,153.088 257.029,153.875 257.720 C 154.714 258.456,155.945 260.305,156.850 262.188 C 160.951 270.722,165.547 273.633,172.254 271.945 C 177.494 270.625,177.241 275.349,171.879 278.919 C 170.325 279.954,170.421 281.550,172.103 282.644 C 179.588 287.511,180.122 287.596,186.800 284.983 C 187.570 284.682,189.027 284.427,190.038 284.418 C 194.396 284.376,193.697 281.567,187.795 275.402 C 186.532 274.083,184.867 272.013,184.095 270.802 C 183.322 269.591,181.762 267.595,180.629 266.367 C 179.426 265.065,178.362 263.451,178.075 262.494 C 177.457 260.429,174.527 256.801,172.166 255.177 C 170.877 254.290,170.100 253.344,169.446 251.867 C 168.943 250.730,167.799 248.953,166.903 247.919 C 166.007 246.884,165.057 245.354,164.791 244.519 C 164.526 243.683,163.808 242.190,163.197 241.200 C 161.966 239.206,161.753 238.598,161.395 236.059 C 161.260 235.102,160.981 233.875,160.775 233.333 C 160.239 231.926,160.312 229.367,160.900 228.907 C 162.756 227.455,164.451 228.343,165.426 231.278 C 165.900 232.706,166.878 234.182,168.558 236.003 C 169.901 237.459,172.860 240.924,175.134 243.703 C 177.407 246.482,179.389 248.811,179.537 248.878 C 179.685 248.945,180.429 249.810,181.191 250.800 C 190.298 262.641,189.847 262.555,201.720 254.700 C 206.394 251.608,208.253 251.193,209.424 252.980 C 210.302 254.320,209.877 255.401,207.648 257.499 C 203.705 261.209,200.265 263.552,198.067 264.023 C 193.958 264.904,194.326 266.820,199.327 270.584 C 201.717 272.383,202.743 272.883,205.030 273.364 C 206.564 273.687,208.341 274.149,208.979 274.392 C 210.632 275.021,212.093 274.575,215.075 272.534 C 217.264 271.035,217.957 270.760,219.344 270.839 C 225.020 271.163,223.962 265.929,216.787 258.200 C 215.562 256.880,214.311 255.170,214.008 254.400 C 213.704 253.630,212.953 252.255,212.339 251.343 C 211.724 250.432,210.857 248.722,210.412 247.543 C 209.828 245.997,209.205 245.144,208.179 244.482 C 207.306 243.918,206.469 242.894,206.012 241.829 C 205.257 240.067,203.921 238.802,202.811 238.798 C 200.067 238.788,198.189 237.053,197.425 233.824 C 197.272 233.177,196.614 231.976,195.964 231.154 C 195.313 230.333,194.387 228.702,193.906 227.530 C 193.425 226.359,192.364 224.548,191.549 223.506 C 190.733 222.464,189.842 220.934,189.569 220.106 C 189.297 219.278,188.275 216.915,187.300 214.856 C 185.210 210.440,185.215 209.137,187.327 207.700 C 189.736 206.060,191.074 206.715,192.227 210.097 C 192.838 211.889,197.782 218.077,198.966 218.532 C 199.273 218.649,200.110 219.613,200.826 220.673 C 201.542 221.733,203.145 223.680,204.388 225.000 C 205.631 226.320,207.429 228.480,208.384 229.800 C 209.338 231.120,211.589 233.730,213.386 235.600 C 215.182 237.470,216.894 239.630,217.191 240.400 C 218.540 243.907,219.907 244.143,222.800 241.371 C 223.790 240.422,225.770 239.116,227.200 238.470 C 228.630 237.823,231.304 236.101,233.141 234.642 C 234.979 233.183,237.589 231.346,238.941 230.559 C 243.575 227.863,244.433 226.371,242.847 223.771 C 242.435 223.095,241.814 221.565,241.467 220.371 C 240.939 218.557,240.590 218.068,239.347 217.400 C 238.528 216.960,236.974 215.475,235.892 214.100 C 234.811 212.725,233.801 211.600,233.647 211.600 C 233.492 211.600,232.680 210.427,231.841 208.992 C 231.002 207.558,229.623 205.547,228.777 204.523 C 226.509 201.778,221.121 190.678,221.277 189.071 C 221.713 184.569,229.371 186.913,231.889 192.319 C 232.586 193.816,233.565 194.990,235.218 196.312 C 236.506 197.343,238.153 199.151,238.880 200.329 C 239.606 201.508,241.117 203.401,242.237 204.536 C 243.357 205.671,244.884 207.757,245.630 209.170 C 249.093 215.733,252.800 216.347,255.589 210.821 C 256.804 208.415,258.962 206.436,264.235 202.894 C 267.774 200.517,268.160 199.768,267.876 195.831 C 267.337 188.362,264.983 183.136,259.415 177.048 C 257.427 174.874,254.967 171.994,253.950 170.648 C 252.325 168.499,249.943 166.093,244.161 160.761 C 243.302 159.970,241.681 158.333,240.557 157.124 C 239.434 155.915,236.929 153.773,234.990 152.363 C 233.052 150.953,230.821 149.238,230.033 148.552 C 226.619 145.578,223.767 144.773,220.359 145.823 M227.095 147.700 C 232.097 150.857,237.189 154.759,239.463 157.179 C 242.365 160.266,242.612 160.509,247.751 165.309 C 249.925 167.339,252.763 170.350,254.059 172.000 C 255.355 173.650,257.933 176.689,259.790 178.753 C 266.645 186.377,269.449 197.955,265.200 201.093 C 257.368 206.878,256.323 207.817,254.776 210.454 C 253.157 213.212,252.672 213.600,250.837 213.600 C 249.458 213.600,248.561 212.639,246.200 208.632 C 244.019 204.931,238.203 197.722,235.911 195.881 C 235.036 195.177,233.623 193.410,232.773 191.954 C 231.080 189.055,228.938 186.926,227.393 186.606 C 226.847 186.493,225.943 186.305,225.385 186.189 C 222.675 185.624,220.400 187.158,220.400 189.550 C 220.400 191.082,225.825 201.703,228.393 205.200 C 229.443 206.630,230.668 208.520,231.115 209.400 C 231.993 211.127,237.041 217.200,237.599 217.200 C 238.418 217.200,240.366 219.335,240.620 220.511 C 240.773 221.220,241.343 222.682,241.886 223.760 C 243.190 226.347,242.833 227.081,239.107 229.473 C 237.508 230.500,234.490 232.632,232.400 234.212 C 230.310 235.793,227.588 237.541,226.352 238.097 C 225.116 238.653,223.369 239.772,222.470 240.584 C 220.484 242.379,219.344 242.347,218.206 240.467 C 217.003 238.478,210.786 231.036,205.982 225.834 C 204.543 224.276,202.787 222.157,202.082 221.127 C 201.377 220.098,199.337 217.758,197.549 215.927 C 195.100 213.420,193.968 211.884,192.957 209.695 C 191.013 205.486,188.999 204.921,186.136 207.784 C 184.391 209.529,184.431 210.433,186.443 214.709 C 187.346 216.629,188.425 219.170,188.840 220.356 C 189.256 221.542,190.217 223.271,190.977 224.198 C 191.737 225.126,192.807 226.898,193.355 228.137 C 193.903 229.376,194.799 230.977,195.345 231.695 C 195.892 232.413,196.724 234.031,197.195 235.291 C 198.158 237.870,199.400 239.056,201.541 239.442 C 203.756 239.842,204.317 240.263,205.363 242.314 C 205.892 243.351,206.904 244.740,207.612 245.400 C 210.184 247.799,210.911 251.372,208.750 250.991 C 206.905 250.666,205.248 251.365,201.573 254.020 C 199.760 255.329,198.055 256.400,197.784 256.400 C 197.513 256.400,196.213 257.120,194.895 258.000 C 190.719 260.789,189.427 260.148,183.044 252.120 C 178.538 246.453,173.072 239.960,170.065 236.703 C 168.537 235.048,167.074 232.950,166.380 231.419 C 163.282 224.588,157.701 226.918,160.200 234.000 C 160.530 234.935,160.800 236.250,160.800 236.922 C 160.800 238.411,164.843 246.766,166.448 248.593 C 167.084 249.318,168.035 250.883,168.560 252.072 C 169.229 253.584,170.017 254.580,171.184 255.389 C 173.818 257.215,176.524 260.442,177.343 262.733 C 177.807 264.034,178.936 265.752,180.355 267.318 C 181.604 268.696,183.052 270.538,183.573 271.412 C 184.093 272.285,185.639 274.170,187.008 275.600 C 191.832 280.640,192.758 282.977,190.100 283.406 C 189.275 283.539,186.875 284.190,184.767 284.853 L 180.933 286.058 178.041 284.933 C 171.906 282.546,171.265 281.050,174.800 277.369 C 178.401 273.618,177.622 270.821,173.067 271.149 C 171.930 271.231,169.580 271.321,167.845 271.349 L 164.690 271.400 161.938 268.400 C 160.056 266.349,158.679 264.344,157.586 262.064 C 156.615 260.036,155.160 257.840,153.877 256.464 C 152.716 255.219,151.034 253.210,150.137 252.000 C 149.241 250.790,147.472 248.644,146.207 247.232 C 144.941 245.819,143.397 243.569,142.776 242.232 C 142.039 240.645,140.528 238.619,138.428 236.400 C 134.627 232.385,133.804 230.484,134.396 227.084 C 135.130 222.869,135.600 219.206,135.600 217.693 C 135.600 215.285,139.332 212.491,143.170 212.026 C 147.063 211.553,146.809 211.873,150.967 202.200 C 154.557 193.850,155.602 192.008,158.200 189.458 C 163.886 183.875,165.317 183.227,168.439 184.820 C 171.056 186.155,173.197 184.638,173.203 181.446 C 173.211 176.958,175.495 166.613,176.985 164.320 C 180.420 159.034,182.951 158.276,196.929 158.348 C 206.207 158.395,207.071 158.207,208.239 155.893 C 209.102 154.182,210.719 152.474,212.200 151.708 C 212.860 151.366,214.523 150.259,215.895 149.247 C 220.359 145.955,223.617 145.505,227.095 147.700 M281.774 150.523 C 278.465 153.833,278.400 153.934,278.399 155.849 C 278.399 158.512,277.372 160.392,275.296 161.530 C 270.598 164.106,269.849 170.800,274.259 170.800 C 275.381 170.800,283.545 163.326,285.321 160.674 C 285.937 159.753,287.355 158.071,288.471 156.936 C 290.765 154.604,290.771 154.533,289.118 150.000 C 287.625 145.908,286.295 146.002,281.774 150.523 M287.467 148.500 C 289.420 151.604,289.545 154.812,287.778 156.468 C 286.997 157.200,285.736 158.731,284.978 159.869 C 282.102 164.183,275.217 169.892,273.432 169.444 C 270.856 168.797,271.885 165.129,275.405 162.409 C 278.131 160.302,279.198 158.536,279.199 156.131 C 279.200 154.895,279.486 154.120,280.300 153.148 C 284.038 148.687,286.557 147.053,287.467 148.500 M303.743 148.605 C 303.615 148.938,303.733 149.478,304.004 149.805 C 304.701 150.645,306.000 150.564,306.000 149.680 C 306.000 148.240,304.210 147.388,303.743 148.605 M322.400 170.470 C 320.586 171.129,319.743 171.215,317.600 170.957 C 312.153 170.300,309.676 170.632,307.214 172.347 C 305.996 173.195,304.336 174.010,303.524 174.158 C 302.420 174.359,301.832 174.777,301.189 175.818 C 300.716 176.583,299.715 177.944,298.965 178.842 C 296.487 181.808,297.110 183.557,301.152 184.983 C 302.108 185.320,303.507 186.138,304.260 186.799 C 305.013 187.460,306.523 188.454,307.615 189.007 C 314.768 192.632,318.351 202.231,315.988 211.436 C 315.541 213.176,314.926 215.789,314.621 217.242 C 314.317 218.695,313.352 221.307,312.478 223.045 C 311.604 224.784,310.615 227.127,310.281 228.252 C 309.947 229.377,309.370 230.884,309.000 231.600 C 308.630 232.316,308.075 233.748,307.769 234.781 C 307.462 235.813,306.517 237.725,305.668 239.029 C 304.820 240.333,303.819 241.902,303.443 242.516 C 303.068 243.130,302.185 243.874,301.480 244.171 C 300.776 244.468,299.276 245.112,298.147 245.602 C 295.645 246.688,289.231 246.477,285.800 245.196 C 277.909 242.251,276.080 242.657,269.390 248.837 C 264.473 253.379,264.118 253.808,262.632 257.000 C 259.780 263.126,257.661 265.584,252.000 269.331 C 250.130 270.569,248.202 272.010,247.715 272.532 C 247.228 273.055,245.428 273.986,243.715 274.601 C 239.382 276.158,238.374 276.715,237.014 278.300 C 232.836 283.170,218.858 289.924,211.983 290.394 C 207.076 290.730,206.846 290.831,202.519 294.567 C 192.845 302.920,176.403 304.146,169.598 297.022 C 165.793 293.039,162.753 293.329,157.404 298.185 C 152.893 302.280,148.566 305.490,146.849 306.014 C 144.244 306.809,143.532 307.352,142.694 309.189 C 142.240 310.185,141.583 311.334,141.234 311.742 C 140.785 312.268,140.527 313.723,140.349 316.742 C 140.137 320.329,139.869 321.582,138.649 324.691 C 136.803 329.393,136.820 329.882,138.909 332.257 C 139.849 333.326,141.414 335.280,142.386 336.600 C 143.358 337.920,145.173 340.080,146.419 341.400 C 147.666 342.720,149.708 345.145,150.958 346.790 C 152.209 348.434,154.349 351.025,155.716 352.548 C 157.082 354.070,158.650 355.866,159.200 356.539 C 159.750 357.211,161.734 359.570,163.609 361.781 C 165.484 363.991,167.506 366.459,168.103 367.265 C 168.700 368.071,169.417 368.971,169.697 369.265 C 171.092 370.729,175.176 375.589,176.198 377.000 C 176.835 377.880,178.550 379.860,180.010 381.400 C 181.469 382.940,183.484 385.280,184.486 386.600 C 185.489 387.920,187.365 390.195,188.655 391.656 C 189.945 393.117,191.585 395.447,192.300 396.833 C 193.024 398.237,193.600 399.000,193.600 398.556 C 193.600 397.072,191.564 393.659,189.047 390.922 C 187.671 389.425,185.792 387.172,184.872 385.916 C 183.951 384.660,181.894 382.230,180.299 380.516 C 178.705 378.802,176.781 376.590,176.025 375.600 C 175.268 374.610,173.462 372.450,172.012 370.800 C 170.561 369.150,168.751 366.990,167.990 366.000 C 166.248 363.734,159.290 355.494,155.999 351.800 C 154.627 350.260,152.505 347.655,151.284 346.011 C 150.062 344.367,147.962 341.847,146.616 340.411 C 145.271 338.975,143.154 336.423,141.912 334.740 C 140.670 333.057,139.451 331.555,139.202 331.401 C 137.906 330.600,137.962 329.138,139.451 324.845 C 140.579 321.596,140.981 319.708,141.164 316.800 L 141.404 313.000 143.479 310.376 C 144.862 308.627,146.261 307.370,147.677 306.604 C 150.220 305.228,154.346 302.010,158.278 298.334 C 162.456 294.429,163.788 294.355,168.576 297.763 C 178.667 304.946,192.905 303.899,203.127 295.223 C 207.435 291.567,207.458 291.556,211.532 291.433 C 217.902 291.240,230.411 285.354,236.710 279.586 C 238.781 277.690,239.927 277.020,243.260 275.758 C 245.741 274.818,247.782 273.761,248.550 273.017 C 249.237 272.352,251.595 270.543,253.788 268.997 C 258.403 265.745,259.935 263.910,262.977 257.991 C 264.988 254.077,265.442 253.506,269.450 249.857 C 276.205 243.706,277.501 243.257,282.871 245.212 C 287.686 246.965,294.205 247.812,296.484 246.982 C 297.428 246.638,299.177 246.005,300.372 245.575 C 302.960 244.644,303.814 243.932,304.900 241.800 C 305.349 240.920,306.140 239.643,306.658 238.962 C 307.176 238.281,307.941 236.735,308.356 235.527 C 308.772 234.319,309.418 232.738,309.793 232.014 C 310.167 231.290,310.747 229.776,311.081 228.649 C 311.416 227.522,312.372 225.160,313.206 223.400 C 315.514 218.531,317.579 210.206,317.592 205.720 C 317.608 200.015,314.937 193.450,311.461 190.653 C 308.757 188.478,302.978 184.830,300.806 183.927 C 298.205 182.846,297.871 181.806,299.413 179.581 C 300.770 177.624,303.401 175.200,304.171 175.200 C 304.483 175.200,305.540 174.588,306.519 173.841 C 309.535 171.539,309.593 171.525,315.140 171.827 C 319.278 172.052,320.660 171.981,322.480 171.452 C 325.727 170.508,326.558 170.607,327.929 172.100 C 329.787 174.123,332.921 177.843,336.270 182.000 C 337.954 184.090,340.607 187.150,342.166 188.800 C 343.725 190.450,345.857 192.880,346.904 194.200 C 347.951 195.520,350.561 198.699,352.704 201.264 C 354.847 203.829,358.130 207.769,360.000 210.019 C 361.870 212.268,364.754 215.660,366.410 217.555 C 368.065 219.450,369.953 221.720,370.605 222.600 C 372.838 225.614,377.762 230.915,379.853 232.558 C 381.003 233.461,382.493 234.959,383.164 235.886 C 385.269 238.794,392.262 240.548,396.563 239.246 C 397.243 239.040,398.295 238.762,398.900 238.628 C 399.552 238.484,400.000 238.119,400.000 237.730 C 400.000 237.138,399.928 237.141,399.235 237.768 C 396.885 239.895,384.824 238.092,384.464 235.560 C 384.273 234.222,383.285 233.219,381.322 232.372 C 379.558 231.610,376.548 228.643,372.426 223.600 C 370.024 220.663,366.628 216.629,359.121 207.800 C 357.063 205.380,354.696 202.500,353.859 201.400 C 353.023 200.300,351.548 198.564,350.583 197.543 C 349.617 196.521,347.718 194.271,346.362 192.543 C 345.007 190.814,342.777 188.230,341.406 186.800 C 340.036 185.370,338.244 183.300,337.426 182.200 C 335.599 179.745,330.384 173.619,328.153 171.307 C 326.279 169.365,325.677 169.278,322.400 170.470 M283.336 200.587 C 279.105 204.758,278.734 205.673,279.793 209.317 C 280.404 211.418,280.402 211.739,279.772 213.987 C 279.142 216.231,279.140 216.563,279.747 218.726 C 280.106 220.006,280.400 222.064,280.400 223.300 C 280.400 226.063,280.754 227.006,282.464 228.804 C 283.199 229.576,284.117 230.697,284.504 231.295 C 286.815 234.869,288.643 233.331,286.391 229.708 C 284.296 226.338,284.365 221.996,286.514 222.003 C 287.697 222.006,288.943 222.909,291.894 225.900 C 294.758 228.803,295.704 229.015,297.514 227.163 C 303.545 220.995,295.178 208.354,288.527 213.586 C 285.188 216.212,284.023 213.626,286.431 208.935 C 289.249 203.446,289.847 203.343,295.392 207.383 C 299.303 210.232,300.422 210.527,302.154 209.165 C 304.815 207.072,305.234 202.918,303.100 199.775 C 301.241 197.037,300.895 196.901,297.850 197.712 C 294.535 198.595,292.613 198.570,290.510 197.615 C 287.873 196.418,287.337 196.640,283.336 200.587 M291.636 198.872 C 293.441 199.245,294.505 199.233,296.713 198.817 C 300.376 198.125,301.341 198.405,302.537 200.504 C 304.283 203.568,304.210 205.865,302.304 207.900 C 300.961 209.333,299.693 209.021,295.415 206.200 C 291.168 203.400,289.955 203.091,288.301 204.392 C 286.934 205.467,283.494 212.237,283.810 213.230 C 284.497 215.397,286.899 215.822,289.286 214.200 C 295.000 210.317,301.652 220.449,297.148 226.176 C 295.794 227.897,294.699 227.534,291.200 224.200 C 286.686 219.900,284.216 220.131,283.725 224.900 C 283.595 226.165,283.361 227.200,283.206 227.200 C 281.536 227.200,280.080 217.843,280.987 212.944 C 281.207 211.755,281.097 210.698,280.598 209.195 C 279.658 206.363,280.208 204.554,282.797 201.964 C 286.364 198.398,287.469 198.011,291.636 198.872 M261.573 214.395 C 259.566 216.031,257.839 217.055,256.122 217.626 C 251.246 219.248,251.197 220.614,255.746 228.145 C 256.525 229.434,257.357 231.414,257.595 232.545 C 258.693 237.760,263.073 238.194,264.557 233.234 C 264.859 232.225,265.802 230.066,266.653 228.435 L 268.200 225.471 268.104 219.435 C 267.970 210.957,266.851 210.094,261.573 214.395 M266.571 213.429 C 266.975 213.832,267.206 214.798,267.217 216.129 C 267.227 217.268,267.393 219.010,267.587 220.000 C 268.063 222.437,267.447 225.111,265.548 228.846 C 264.697 230.522,263.999 232.142,263.999 232.446 C 263.987 236.818,259.543 236.474,258.235 232.000 C 257.881 230.790,256.603 227.879,255.396 225.531 C 252.484 219.868,252.536 219.575,256.700 218.219 C 257.856 217.843,260.016 216.588,261.500 215.430 C 265.076 212.641,265.584 212.441,266.571 213.429 M27.400 227.371 C 25.200 228.774,22.376 230.665,21.124 231.574 C 19.023 233.099,18.668 233.220,16.505 233.155 C 10.996 232.990,10.071 236.291,14.337 240.891 C 15.617 242.271,17.524 244.480,18.576 245.800 C 23.144 251.535,25.817 250.634,37.481 239.426 C 42.283 234.812,42.327 234.425,38.523 230.302 C 37.051 228.706,35.566 227.071,35.223 226.668 C 34.502 225.822,32.677 224.796,31.920 224.810 C 31.634 224.815,29.600 225.968,27.400 227.371 M36.890 229.561 C 39.543 232.251,40.400 233.383,40.400 234.192 C 40.400 235.534,35.896 240.670,33.206 242.396 C 32.187 243.050,30.914 244.064,30.377 244.649 C 25.763 249.677,22.910 249.843,19.120 245.302 C 17.514 243.379,15.435 240.943,14.500 239.889 C 11.458 236.461,12.335 234.000,16.597 234.000 C 18.852 234.000,19.271 233.856,21.355 232.363 C 25.503 229.393,31.383 226.003,32.390 226.002 C 33.107 226.000,34.347 226.981,36.890 229.561 M242.719 234.300 C 242.152 234.905,241.321 236.132,240.873 237.027 C 239.400 239.969,235.660 242.672,230.912 244.228 C 221.632 247.268,221.376 247.888,226.887 253.988 C 231.877 259.511,233.814 260.336,236.890 258.249 C 237.661 257.726,238.901 257.090,239.646 256.837 C 241.470 256.215,242.082 255.697,243.328 253.718 C 243.911 252.792,245.372 251.292,246.574 250.385 C 249.309 248.319,249.914 246.833,249.052 244.294 C 248.725 243.331,248.178 241.068,247.836 239.265 C 246.723 233.399,245.068 231.793,242.719 234.300 M245.535 235.135 C 245.940 235.540,246.491 237.025,246.760 238.435 C 247.029 239.846,247.616 242.170,248.062 243.600 C 249.095 246.905,248.783 247.796,245.827 249.980 C 244.609 250.880,243.358 252.108,243.047 252.709 C 242.246 254.257,241.419 254.906,237.881 256.763 C 233.318 259.158,232.843 259.071,229.084 255.153 C 222.300 248.081,222.342 247.866,231.052 245.021 C 236.334 243.296,239.597 240.883,241.742 237.116 C 243.271 234.431,244.296 233.896,245.535 235.135 M0.400 238.800 C 0.400 239.020,0.670 239.200,1.000 239.200 C 1.330 239.200,1.600 239.020,1.600 238.800 C 1.600 238.580,1.330 238.400,1.000 238.400 C 0.670 238.400,0.400 238.580,0.400 238.800 M1.984 243.914 C 2.236 244.417,2.883 245.477,3.422 246.270 C 4.780 248.272,4.678 249.344,3.000 250.683 C 2.230 251.297,1.600 252.121,1.600 252.513 C 1.600 252.905,1.195 253.389,0.700 253.588 C -0.165 253.935,-0.157 253.950,0.900 253.975 C 1.667 253.992,2.000 253.800,2.000 253.338 C 2.000 252.974,2.720 252.060,3.600 251.307 C 6.030 249.228,5.798 247.445,2.678 244.200 C 1.739 243.223,1.610 243.170,1.984 243.914 M212.849 254.700 C 213.351 255.525,214.772 257.280,216.007 258.600 C 222.780 265.842,223.899 269.726,219.312 270.081 C 217.594 270.213,216.488 270.588,215.006 271.539 C 210.007 274.749,203.369 273.559,197.900 268.473 C 196.166 266.861,196.426 265.789,198.735 265.022 C 201.554 264.085,211.200 255.882,211.200 254.421 C 211.200 253.823,211.524 253.200,211.834 253.200 C 211.889 253.200,212.346 253.875,212.849 254.700 M13.400 264.660 C 11.640 265.454,8.400 267.369,6.200 268.916 C 4.000 270.462,1.660 271.875,1.000 272.057 C -0.060 272.348,-0.019 272.365,1.353 272.210 C 2.433 272.087,4.158 271.184,7.007 269.252 C 11.081 266.487,16.046 264.000,17.489 264.000 C 18.541 264.000,26.697 272.906,27.135 274.533 C 27.758 276.844,23.496 282.015,17.800 285.857 C 16.700 286.599,14.904 287.849,13.810 288.635 C 11.160 290.538,10.213 290.323,6.827 287.054 C 5.382 285.659,3.803 284.392,3.320 284.238 C 2.837 284.085,2.338 283.636,2.213 283.240 C 2.087 282.845,1.493 282.300,0.892 282.029 L -0.200 281.537 0.739 282.420 C 1.255 282.906,1.858 283.820,2.078 284.452 C 2.298 285.083,2.722 285.600,3.020 285.600 C 3.318 285.600,4.123 286.298,4.809 287.152 C 7.500 290.500,10.827 291.478,13.482 289.700 C 18.476 286.357,20.396 284.921,22.200 283.181 C 23.300 282.120,24.944 280.609,25.853 279.822 C 29.277 276.859,29.052 274.723,24.842 270.193 C 23.389 268.630,21.377 266.417,20.372 265.275 C 18.156 262.760,17.701 262.720,13.400 264.660 M143.141 273.357 C 142.559 273.661,140.901 274.912,139.458 276.136 C 135.692 279.331,134.750 279.743,131.936 279.425 C 128.905 279.082,127.522 279.734,123.899 283.216 C 120.529 286.455,120.435 287.280,123.263 288.805 C 124.288 289.357,125.472 290.122,125.895 290.505 C 126.923 291.435,128.732 291.379,130.200 290.370 C 130.860 289.917,132.660 288.954,134.200 288.232 C 135.932 287.419,138.144 285.881,140.000 284.201 C 141.650 282.706,143.930 280.884,145.066 280.151 C 148.365 278.024,148.821 274.859,146.037 273.419 C 144.581 272.666,144.471 272.664,143.141 273.357 M146.662 275.192 C 147.402 276.648,146.609 278.094,144.085 279.888 C 142.828 280.781,140.670 282.541,139.290 283.799 C 137.023 285.864,129.154 290.400,127.839 290.400 C 127.321 290.400,123.131 287.665,122.737 287.070 C 121.265 284.846,128.181 279.832,132.158 280.240 C 135.148 280.546,136.074 280.110,140.406 276.356 C 143.752 273.456,145.604 273.111,146.662 275.192 M105.867 290.667 C 105.179 291.354,105.801 292.786,107.660 294.800 C 108.777 296.010,109.942 297.375,110.248 297.834 C 111.764 300.102,114.624 299.945,113.422 297.660 C 111.244 293.518,106.970 289.563,105.867 290.667 M2.848 301.700 C 13.726 314.157,13.797 314.357,8.271 317.031 C 6.112 318.076,5.780 318.430,3.715 321.890 C 0.819 326.743,1.192 327.079,4.230 322.354 C 6.411 318.960,6.763 318.609,9.109 317.489 C 13.621 315.334,14.036 313.263,10.677 309.670 C 9.510 308.422,7.668 306.320,6.584 305.000 C 4.503 302.465,2.438 300.400,1.984 300.400 C 1.835 300.400,2.224 300.985,2.848 301.700 M1.660 358.801 C 1.890 359.461,2.241 360.102,2.439 360.224 C 2.997 360.569,2.865 362.983,2.220 364.226 C 1.508 365.600,1.882 366.435,2.628 365.135 C 3.889 362.941,4.032 362.310,3.581 360.942 C 3.337 360.204,2.972 359.600,2.769 359.600 C 2.566 359.600,2.400 359.150,2.400 358.600 C 2.400 357.994,2.172 357.600,1.821 357.600 C 1.351 357.600,1.321 357.827,1.660 358.801 M1.232 376.580 C 1.208 377.740,1.318 378.042,1.645 377.715 C 1.961 377.399,1.970 376.940,1.677 376.135 C 1.268 375.013,1.263 375.018,1.232 376.580 " stroke="none" fill="#d6b06d" fill-rule="evenodd"></path><path id="path3" d="" stroke="none" fill="#f3e1bb" fill-rule="evenodd"></path><path id="path4" d="" stroke="none" fill="#aa9167" fill-rule="evenodd"></path></g></svg>